<svg width="36" height="36" viewBox="0 0 36 36" fill="none" xmlns="http://www.w3.org/2000/svg">
<path d="M26.4037 21.618C26.042 21.4382 23.691 20.3596 23.3293 20.1798C22.9676 20 22.6059 20 22.2442 20.3596C21.8825 20.7191 21.1591 21.7978 20.7975 22.1573C20.6166 22.5169 20.2549 22.5169 19.8932 22.3371C18.6273 21.7978 17.3613 21.0787 16.2763 20.1798C15.372 19.2809 14.4678 18.2022 13.7444 17.1236C13.5636 16.764 13.7444 16.4045 13.9252 16.2247C14.1061 16.0449 14.2869 15.6854 14.6486 15.5056C14.8295 15.3258 15.0103 14.9663 15.0103 14.7865C15.1912 14.6067 15.1912 14.2472 15.0103 14.0674C14.8295 13.8876 13.9252 11.7303 13.5636 10.8315C13.3827 9.57303 13.021 9.57303 12.6593 9.57303C12.4785 9.57303 12.1168 9.57303 11.7551 9.57303C11.3934 9.57303 10.8508 9.93258 10.67 10.1124C9.58491 11.191 9.04237 12.4494 9.04237 13.8876C9.22322 15.5056 9.76576 17.1236 10.8508 18.5618C12.8402 21.4382 15.372 23.7753 18.4464 25.2135C19.3507 25.573 20.0741 25.9326 20.9783 26.1124C21.8825 26.4719 22.7868 26.4719 23.8719 26.2921C25.1378 26.1124 26.2229 25.2135 26.9463 24.1348C27.308 23.4157 27.308 22.6966 27.1271 21.9775C27.1271 21.9775 26.7654 21.7978 26.4037 21.618ZM30.9249 5.25843C23.8719 -1.75281 12.4785 -1.75281 5.42542 5.25843C-0.361695 11.0112 -1.44678 19.8202 2.53186 26.8315L0 36L9.58491 33.4831C12.2976 34.9213 15.1912 35.6404 18.0847 35.6404C28.0313 35.6404 35.9886 27.7303 35.9886 17.8427C36.1695 13.1685 34.1802 8.67416 30.9249 5.25843ZM26.042 30.427C23.691 31.8652 20.9783 32.764 18.0847 32.764C15.372 32.764 12.8402 32.0449 10.4891 30.7865L9.94661 30.427L4.34034 31.8652L5.78712 26.4719L5.42542 25.9326C1.08508 18.7416 3.25525 9.75281 10.3083 5.25843C17.3613 0.764045 26.4037 3.10112 30.7441 9.93258C35.0844 16.9438 33.0951 26.1124 26.042 30.427Z" fill="white"/>
</svg>
