<svg width="26" height="27" viewBox="0 0 26 27" fill="none" xmlns="http://www.w3.org/2000/svg">
<path d="M19.0694 15.8515C18.8081 15.7197 17.1102 14.9288 16.8489 14.7969C16.5877 14.6651 16.3265 14.6651 16.0653 14.9288C15.8041 15.1924 15.2816 15.9833 15.0204 16.247C14.8898 16.5106 14.6285 16.5106 14.3673 16.3788C13.453 15.9833 12.5388 15.456 11.7551 14.7969C11.102 14.1378 10.449 13.3469 9.92651 12.556C9.7959 12.2923 9.92651 12.0287 10.0571 11.8969C10.1877 11.7651 10.3183 11.5014 10.5796 11.3696C10.7102 11.2378 10.8408 10.9741 10.8408 10.8423C10.9714 10.7105 10.9714 10.4468 10.8408 10.315C10.7102 10.1832 10.0571 8.60134 9.7959 7.94223C9.66529 7.01948 9.40406 7.01949 9.14284 7.01949C9.01223 7.01949 8.751 7.01949 8.48978 7.01949C8.22856 7.01949 7.83672 7.28313 7.70611 7.41495C6.92244 8.20588 6.5306 9.12863 6.5306 10.1832C6.66121 11.3696 7.05305 12.556 7.83672 13.6106C9.27345 15.7197 11.102 17.4334 13.3224 18.4879C13.9755 18.7516 14.4979 19.0152 15.151 19.147C15.8041 19.4107 16.4571 19.4107 17.2408 19.2789C18.1551 19.147 18.9387 18.4879 19.4612 17.697C19.7224 17.1697 19.7224 16.6424 19.5918 16.1152C19.5918 16.1152 19.3306 15.9833 19.0694 15.8515ZM22.3347 3.85577C17.2408 -1.28526 9.01223 -1.28526 3.91836 3.85577C-0.261224 8.07406 -1.0449 14.5333 1.82857 19.6743L0 26.3972L6.92244 24.5517C8.88162 25.6063 10.9714 26.1336 13.0612 26.1336C20.2449 26.1336 25.9918 20.3334 25.9918 13.0833C26.1224 9.65591 24.6857 6.36038 22.3347 3.85577ZM18.8081 22.3108C17.1102 23.3653 15.151 24.0244 13.0612 24.0244C11.102 24.0244 9.27345 23.4972 7.5755 22.5744L7.18366 22.3108L3.13469 23.3653L4.17958 19.4107L3.91836 19.0152C0.783672 13.7424 2.35102 7.15131 7.44488 3.85577C12.5388 0.560241 19.0694 2.27392 22.204 7.28313C25.3387 12.4242 23.902 19.147 18.8081 22.3108Z" fill="#593A00"/>
</svg>
