<svg width="12" height="16" viewBox="0 0 12 16" fill="none" xmlns="http://www.w3.org/2000/svg">
<path d="M6 0.5C3.10125 0.5 0.75 2.85125 0.75 5.75C0.75 9.6875 6 15.5 6 15.5C6 15.5 11.25 9.6875 11.25 5.75C11.25 2.85125 8.89875 0.5 6 0.5ZM6 7.625C4.965 7.625 4.125 6.785 4.125 5.75C4.125 4.715 4.965 3.875 6 3.875C7.035 3.875 7.875 4.715 7.875 5.75C7.875 6.785 7.035 7.625 6 7.625Z" fill="black"/>
<path d="M6 0.5C3.10125 0.5 0.75 2.85125 0.75 5.75C0.75 9.6875 6 15.5 6 15.5C6 15.5 11.25 9.6875 11.25 5.75C11.25 2.85125 8.89875 0.5 6 0.5ZM6 7.625C4.965 7.625 4.125 6.785 4.125 5.75C4.125 4.715 4.965 3.875 6 3.875C7.035 3.875 7.875 4.715 7.875 5.75C7.875 6.785 7.035 7.625 6 7.625Z" fill="url(#paint0_linear_29_3)"/>
<defs>
<linearGradient id="paint0_linear_29_3" x1="6" y1="0.5" x2="6" y2="15.5" gradientUnits="userSpaceOnUse">
<stop stop-color="#FFC947"/>
<stop offset="1" stop-color="#D98C00"/>
</linearGradient>
</defs>
</svg>
