<svg width="178" height="85" viewBox="0 0 178 85" fill="none" xmlns="http://www.w3.org/2000/svg">
<path d="M7.68 24.24C6.352 24.24 5.12 24.072 3.984 23.736C2.848 23.384 1.888 22.912 1.104 22.32L2.04 19.896C2.824 20.456 3.68 20.888 4.608 21.192C5.552 21.496 6.576 21.648 7.68 21.648C8.944 21.648 9.864 21.44 10.44 21.024C11.016 20.592 11.304 20.04 11.304 19.368C11.304 18.808 11.096 18.368 10.68 18.048C10.28 17.728 9.584 17.464 8.592 17.256L5.952 16.704C2.944 16.064 1.44 14.52 1.44 12.072C1.44 11.016 1.72 10.096 2.28 9.312C2.84 8.528 3.616 7.92 4.608 7.488C5.6 7.056 6.744 6.84 8.04 6.84C9.192 6.84 10.272 7.016 11.28 7.368C12.288 7.704 13.128 8.184 13.8 8.808L12.864 11.112C11.536 9.992 9.92 9.432 8.016 9.432C6.912 9.432 6.048 9.664 5.424 10.128C4.8 10.592 4.488 11.2 4.488 11.952C4.488 12.528 4.68 12.992 5.064 13.344C5.448 13.68 6.104 13.944 7.032 14.136L9.648 14.688C11.232 15.024 12.408 15.552 13.176 16.272C13.96 16.992 14.352 17.952 14.352 19.152C14.352 20.16 14.08 21.048 13.536 21.816C12.992 22.584 12.216 23.184 11.208 23.616C10.216 24.032 9.04 24.24 7.68 24.24ZM22.0526 24.24C20.8366 24.24 19.7806 23.992 18.8846 23.496C17.9886 23 17.2926 22.296 16.7966 21.384C16.3006 20.456 16.0526 19.368 16.0526 18.12C16.0526 16.872 16.3006 15.792 16.7966 14.88C17.2926 13.968 17.9886 13.264 18.8846 12.768C19.7806 12.272 20.8366 12.024 22.0526 12.024C23.2686 12.024 24.3246 12.272 25.2206 12.768C26.1166 13.264 26.8126 13.968 27.3086 14.88C27.8046 15.792 28.0526 16.872 28.0526 18.12C28.0526 19.368 27.8046 20.456 27.3086 21.384C26.8126 22.296 26.1166 23 25.2206 23.496C24.3246 23.992 23.2686 24.24 22.0526 24.24ZM22.0526 21.96C22.9486 21.96 23.6686 21.64 24.2126 21C24.7566 20.344 25.0286 19.384 25.0286 18.12C25.0286 16.84 24.7566 15.888 24.2126 15.264C23.6686 14.624 22.9486 14.304 22.0526 14.304C21.1566 14.304 20.4366 14.624 19.8926 15.264C19.3486 15.888 19.0766 16.84 19.0766 18.12C19.0766 19.384 19.3486 20.344 19.8926 21C20.4366 21.64 21.1566 21.96 22.0526 21.96ZM34.6088 24.24C33.2168 24.24 32.1848 23.864 31.5128 23.112C30.8568 22.344 30.5288 21.224 30.5288 19.752V7.08H33.5288V19.608C33.5288 21.048 34.1368 21.768 35.3528 21.768C35.5288 21.768 35.7048 21.76 35.8808 21.744C36.0568 21.728 36.2248 21.696 36.3848 21.648L36.3368 24.024C35.7608 24.168 35.1848 24.24 34.6088 24.24ZM42.4408 24.24C39.5608 24.24 38.1208 22.624 38.1208 19.392V12.264H41.1208V19.44C41.1208 20.272 41.2888 20.888 41.6248 21.288C41.9608 21.688 42.4968 21.888 43.2328 21.888C44.0328 21.888 44.6888 21.616 45.2008 21.072C45.7128 20.512 45.9688 19.776 45.9688 18.864V12.264H48.9688V24H46.0408V22.248C45.2568 23.576 44.0568 24.24 42.4408 24.24ZM57.5153 24.24C56.2833 24.24 55.2113 23.992 54.2993 23.496C53.3873 22.984 52.6833 22.264 52.1873 21.336C51.6913 20.408 51.4433 19.32 51.4433 18.072C51.4433 16.824 51.6913 15.752 52.1873 14.856C52.6833 13.944 53.3873 13.248 54.2993 12.768C55.2113 12.272 56.2833 12.024 57.5153 12.024C58.2673 12.024 59.0113 12.144 59.7473 12.384C60.4833 12.624 61.0913 12.96 61.5713 13.392L60.6833 15.48C60.2673 15.112 59.7953 14.832 59.2673 14.64C58.7553 14.448 58.2593 14.352 57.7793 14.352C56.7393 14.352 55.9313 14.68 55.3553 15.336C54.7953 15.976 54.5153 16.896 54.5153 18.096C54.5153 19.28 54.7953 20.216 55.3553 20.904C55.9313 21.576 56.7393 21.912 57.7793 21.912C58.2433 21.912 58.7393 21.816 59.2673 21.624C59.7953 21.432 60.2673 21.144 60.6833 20.76L61.5713 22.872C61.0913 23.288 60.4753 23.624 59.7233 23.88C58.9873 24.12 58.2513 24.24 57.5153 24.24ZM57.3473 28.68C56.8833 28.68 56.4353 28.632 56.0033 28.536C55.5713 28.456 55.2033 28.336 54.8993 28.176L55.3313 26.832C55.6193 26.96 55.8993 27.056 56.1713 27.12C56.4593 27.2 56.7713 27.24 57.1073 27.24C57.9713 27.24 58.4033 27 58.4033 26.52C58.4033 26.152 58.1073 25.968 57.5153 25.968C57.3553 25.968 57.2033 25.976 57.0593 25.992C56.9153 26.008 56.7393 26.048 56.5312 26.112L56.0753 25.68L56.3873 23.52H57.9953L57.7553 24.912C57.8513 24.896 57.9393 24.888 58.0193 24.888C58.6753 24.888 59.2033 25.04 59.6033 25.344C60.0033 25.648 60.2033 26.072 60.2033 26.616C60.2033 27.24 59.9393 27.736 59.4113 28.104C58.8833 28.488 58.1953 28.68 57.3473 28.68ZM68.5292 24.24C67.3132 24.24 66.2572 23.992 65.3612 23.496C64.4652 23 63.7692 22.296 63.2732 21.384C62.7772 20.456 62.5292 19.368 62.5292 18.12C62.5292 16.872 62.7772 15.792 63.2732 14.88C63.7692 13.968 64.4652 13.264 65.3612 12.768C66.2572 12.272 67.3132 12.024 68.5292 12.024C69.7452 12.024 70.8012 12.272 71.6972 12.768C72.5932 13.264 73.2892 13.968 73.7852 14.88C74.2812 15.792 74.5292 16.872 74.5292 18.12C74.5292 19.368 74.2812 20.456 73.7852 21.384C73.2892 22.296 72.5932 23 71.6972 23.496C70.8012 23.992 69.7452 24.24 68.5292 24.24ZM68.5292 21.96C69.4252 21.96 70.1452 21.64 70.6892 21C71.2332 20.344 71.5052 19.384 71.5052 18.12C71.5052 16.84 71.2332 15.888 70.6892 15.264C70.1452 14.624 69.4252 14.304 68.5292 14.304C67.6332 14.304 66.9132 14.624 66.3692 15.264C65.8252 15.888 65.5532 16.84 65.5532 18.12C65.5532 19.384 65.8252 20.344 66.3692 21C66.9132 21.64 67.6332 21.96 68.5292 21.96ZM65.3612 9.984L63.8732 9.888C63.9532 8.784 64.2492 7.92 64.7612 7.296C65.2732 6.656 65.9372 6.336 66.7532 6.336C67.1212 6.336 67.4492 6.416 67.7372 6.576C68.0412 6.72 68.3852 6.936 68.7692 7.224C69.1212 7.48 69.4012 7.664 69.6092 7.776C69.8172 7.872 70.0252 7.92 70.2332 7.92C71.0492 7.92 71.5372 7.36 71.6972 6.24L73.1852 6.336C73.1212 7.44 72.8332 8.312 72.3212 8.952C71.8092 9.576 71.1452 9.888 70.3292 9.888C69.9932 9.888 69.6732 9.824 69.3692 9.696C69.0812 9.568 68.7212 9.336 68.2892 9C67.6972 8.536 67.2172 8.304 66.8492 8.304C66.0492 8.304 65.5532 8.864 65.3612 9.984ZM82.7893 24.24C81.4613 24.24 80.3173 23.992 79.3573 23.496C78.3973 23 77.6533 22.296 77.1253 21.384C76.6133 20.472 76.3573 19.392 76.3573 18.144C76.3573 16.928 76.6053 15.864 77.1013 14.952C77.6133 14.04 78.3093 13.328 79.1893 12.816C80.0853 12.288 81.1013 12.024 82.2373 12.024C83.9013 12.024 85.2133 12.552 86.1733 13.608C87.1493 14.664 87.6373 16.104 87.6373 17.928V18.816H79.2373C79.4613 20.912 80.6613 21.96 82.8373 21.96C83.4933 21.96 84.1493 21.864 84.8053 21.672C85.4613 21.464 86.0613 21.144 86.6053 20.712L87.4453 22.728C86.8853 23.192 86.1813 23.56 85.3333 23.832C84.4853 24.104 83.6373 24.24 82.7893 24.24ZM82.3573 14.064C81.4773 14.064 80.7653 14.336 80.2213 14.88C79.6773 15.424 79.3493 16.16 79.2373 17.088H85.1413C85.0773 16.112 84.8053 15.368 84.3253 14.856C83.8613 14.328 83.2053 14.064 82.3573 14.064ZM94.3091 24.24C93.3171 24.24 92.3891 24.12 91.5251 23.88C90.6611 23.64 89.9411 23.296 89.3651 22.848L90.1331 20.88C90.7251 21.28 91.3891 21.592 92.1251 21.816C92.8611 22.024 93.5971 22.128 94.3331 22.128C95.1011 22.128 95.6691 22 96.0371 21.744C96.4211 21.472 96.6131 21.12 96.6131 20.688C96.6131 20.016 96.1171 19.584 95.1251 19.392L92.7251 18.936C90.6931 18.552 89.6771 17.496 89.6771 15.768C89.6771 15 89.8851 14.336 90.3011 13.776C90.7331 13.216 91.3251 12.784 92.0771 12.48C92.8291 12.176 93.6931 12.024 94.6691 12.024C95.5011 12.024 96.3011 12.144 97.0691 12.384C97.8371 12.608 98.4931 12.952 99.0371 13.416L98.2211 15.384C97.7571 15 97.1971 14.696 96.5411 14.472C95.9011 14.248 95.2851 14.136 94.6931 14.136C93.9091 14.136 93.3251 14.272 92.9411 14.544C92.5731 14.816 92.3891 15.176 92.3891 15.624C92.3891 16.328 92.8451 16.76 93.7571 16.92L96.1571 17.376C97.1971 17.568 97.9811 17.92 98.5091 18.432C99.0531 18.944 99.3251 19.632 99.3251 20.496C99.3251 21.664 98.8691 22.584 97.9571 23.256C97.0451 23.912 95.8291 24.24 94.3091 24.24Z" fill="#1C37A6"/>
<path d="M11.376 37.968C16.144 37.968 19.696 38.768 22.032 40.368C24.4 41.936 25.584 44.432 25.584 47.856C25.584 51.44 24.32 54.176 21.792 56.064C19.264 57.952 15.616 58.896 10.848 58.896H9.648V66C9.648 68.336 9.904 70.144 10.416 71.424C9.52 72.224 8.512 72.624 7.392 72.624C6.464 72.624 5.712 72.384 5.136 71.904C4.592 71.392 4.32 70.704 4.32 69.84V44.928C4.32 44.064 4.256 43.104 4.128 42.048C4 40.96 3.792 40.016 3.504 39.216C5.264 38.384 7.888 37.968 11.376 37.968ZM10.752 56.928C16.768 56.928 19.776 54.016 19.776 48.192C19.776 45.536 19.104 43.504 17.76 42.096C16.448 40.688 14.32 39.984 11.376 39.984C10.736 39.984 10.16 40.016 9.648 40.08V56.928H10.752ZM33.8516 43.776C32.9556 43.776 32.1876 43.472 31.5476 42.864C30.9396 42.256 30.6356 41.52 30.6356 40.656C30.6356 39.76 30.9396 39.008 31.5476 38.4C32.1876 37.76 32.9556 37.44 33.8516 37.44C34.7156 37.44 35.4516 37.76 36.0596 38.4C36.6996 39.008 37.0196 39.76 37.0196 40.656C37.0196 41.52 36.6996 42.256 36.0596 42.864C35.4516 43.472 34.7156 43.776 33.8516 43.776ZM36.6836 65.712C36.6836 68.208 36.9396 70.112 37.4516 71.424C36.5556 72.224 35.5476 72.624 34.4276 72.624C33.5636 72.624 32.8596 72.384 32.3156 71.904C31.7716 71.392 31.4996 70.704 31.4996 69.84L31.4516 53.616C31.4516 51.28 31.1956 49.36 30.6836 47.856C31.6436 47.088 32.6196 46.704 33.6116 46.704C34.4756 46.704 35.1796 46.96 35.7236 47.472C36.2996 47.952 36.5876 48.624 36.5876 49.488L36.6836 65.712ZM51.0165 72.624C48.0085 72.624 45.7365 72.112 44.2005 71.088C42.6645 70.064 41.8965 68.688 41.8965 66.96C41.8965 66.096 42.1365 65.36 42.6165 64.752C43.1285 64.144 43.9125 63.84 44.9685 63.84C45.1605 63.84 45.4805 63.872 45.9285 63.936C45.8325 64.32 45.7845 64.672 45.7845 64.992C45.7845 65.376 45.8325 65.792 45.9285 66.24C46.0885 67.52 46.6485 68.56 47.6085 69.36C48.6005 70.16 49.9445 70.56 51.6405 70.56C53.1445 70.56 54.3605 70.288 55.2885 69.744C56.2165 69.168 56.6805 68.336 56.6805 67.248C56.6805 66.512 56.4565 65.872 56.0085 65.328C55.5925 64.752 55.0645 64.272 54.4245 63.888C53.7845 63.504 52.8725 63.024 51.6885 62.448C51.4325 62.352 51.0485 62.176 50.5365 61.92C48.8085 61.12 47.4325 60.416 46.4085 59.808C45.4165 59.168 44.5525 58.32 43.8165 57.264C43.1125 56.208 42.7605 54.912 42.7605 53.376C42.7605 51.136 43.6245 49.472 45.3525 48.384C47.0805 47.264 49.2725 46.704 51.9285 46.704C54.5845 46.704 56.6805 47.12 58.2165 47.952C59.7525 48.752 60.5205 49.92 60.5205 51.456C60.5205 52.16 60.3125 52.768 59.8965 53.28C59.5125 53.76 58.8885 54.016 58.0245 54.048C57.8645 54.08 57.6565 54.096 57.4005 54.096C57.2405 54.096 56.9365 54.064 56.4885 54C56.5205 53.808 56.5365 53.52 56.5365 53.136C56.5365 52.432 56.4405 51.904 56.2485 51.552C56.0565 50.656 55.5605 49.968 54.7605 49.488C53.9925 48.976 52.9845 48.72 51.7365 48.72C50.5525 48.72 49.5445 48.96 48.7125 49.44C47.9125 49.92 47.5125 50.656 47.5125 51.648C47.5125 52.544 47.7685 53.312 48.2805 53.952C48.8245 54.592 49.4805 55.136 50.2485 55.584C51.0165 56.032 52.1045 56.592 53.5125 57.264C55.4645 58.192 56.9205 58.944 57.8805 59.52C58.8405 60.064 59.7045 60.816 60.4725 61.776C61.2405 62.736 61.6245 63.904 61.6245 65.28C61.6245 67.328 60.7605 69.072 59.0325 70.512C57.3365 71.92 54.6645 72.624 51.0165 72.624ZM76.536 72.624C72.824 72.624 69.944 71.52 67.896 69.312C65.88 67.072 64.872 63.872 64.872 59.712C64.872 55.68 65.912 52.512 67.992 50.208C70.072 47.904 73 46.752 76.776 46.752C79.496 46.752 81.592 47.328 83.064 48.48C84.568 49.6 85.32 51.056 85.32 52.848C85.32 54.064 84.952 55.04 84.216 55.776C83.512 56.512 82.584 56.88 81.432 56.88C80.888 56.88 80.344 56.8 79.8 56.64C79.288 56.448 78.888 56.176 78.6 55.824C79.56 55.184 80.04 54.048 80.04 52.416C80.04 51.136 79.704 50.208 79.032 49.632C78.36 49.024 77.464 48.72 76.344 48.72C74.552 48.72 73.128 49.616 72.072 51.408C71.016 53.168 70.488 55.664 70.488 58.896C70.488 62.48 71.16 65.104 72.504 66.768C73.848 68.432 75.704 69.264 78.072 69.264C79.768 69.264 81.224 68.848 82.44 68.016C83.656 67.184 84.44 66.048 84.792 64.608C85.304 64.8 85.56 65.264 85.56 66C85.56 66.416 85.496 66.864 85.368 67.344C84.856 69.04 83.816 70.352 82.248 71.28C80.712 72.176 78.808 72.624 76.536 72.624ZM93.7579 43.776C92.8619 43.776 92.0939 43.472 91.4539 42.864C90.8459 42.256 90.5419 41.52 90.5419 40.656C90.5419 39.76 90.8459 39.008 91.4539 38.4C92.0939 37.76 92.8619 37.44 93.7579 37.44C94.6219 37.44 95.3579 37.76 95.9659 38.4C96.6059 39.008 96.9259 39.76 96.9259 40.656C96.9259 41.52 96.6059 42.256 95.9659 42.864C95.3579 43.472 94.6219 43.776 93.7579 43.776ZM96.5899 65.712C96.5899 68.208 96.8459 70.112 97.3579 71.424C96.4619 72.224 95.4539 72.624 94.3339 72.624C93.4699 72.624 92.7659 72.384 92.2219 71.904C91.6779 71.392 91.4059 70.704 91.4059 69.84L91.3579 53.616C91.3579 51.28 91.1019 49.36 90.5899 47.856C91.5499 47.088 92.5259 46.704 93.5179 46.704C94.3819 46.704 95.0859 46.96 95.6299 47.472C96.2059 47.952 96.4939 48.624 96.4939 49.488L96.5899 65.712ZM124.795 65.712C124.859 68.336 125.147 70.24 125.659 71.424C124.795 72.224 123.787 72.624 122.635 72.624C121.739 72.624 121.003 72.384 120.427 71.904C119.851 71.392 119.563 70.704 119.563 69.84V57.312C119.531 54.656 119.211 52.704 118.603 51.456C118.027 50.176 116.955 49.536 115.387 49.536C114.331 49.536 113.355 49.936 112.459 50.736C111.595 51.536 110.891 52.768 110.347 54.432C109.803 56.064 109.531 58.112 109.531 60.576C109.531 64.352 109.579 66.848 109.675 68.064C109.771 69.28 110.027 70.416 110.443 71.472C110.123 71.76 109.691 72.016 109.147 72.24C108.635 72.496 108.075 72.624 107.467 72.624C106.539 72.624 105.787 72.352 105.211 71.808C104.635 71.264 104.347 70.528 104.347 69.6V53.232C104.315 52.336 104.203 51.696 104.011 51.312C103.819 50.928 103.499 50.736 103.051 50.736C102.443 50.736 102.027 50.96 101.803 51.408C101.387 50.8 101.179 50.192 101.179 49.584C101.179 48.752 101.483 48.08 102.091 47.568C102.699 47.024 103.547 46.752 104.635 46.752C106.011 46.752 107.067 47.232 107.803 48.192C108.571 49.12 108.955 50.512 108.955 52.368V52.608C109.595 50.72 110.603 49.28 111.979 48.288C113.387 47.264 115.083 46.752 117.067 46.752C119.691 46.752 121.627 47.568 122.875 49.2C124.155 50.832 124.795 53.28 124.795 56.544V65.712ZM153.981 67.728C154.365 68.24 154.557 68.832 154.557 69.504C154.557 70.336 154.189 71.04 153.453 71.616C152.717 72.192 151.773 72.48 150.621 72.48C149.053 72.48 147.869 71.952 147.069 70.896C146.269 69.808 145.853 68.064 145.821 65.664C144.861 67.744 143.549 69.408 141.885 70.656C140.221 71.904 138.317 72.528 136.173 72.528C134.317 72.528 132.813 72.032 131.661 71.04C130.541 70.016 129.981 68.64 129.981 66.912C129.981 64.896 130.749 63.232 132.285 61.92C133.821 60.608 135.789 59.616 138.189 58.944C140.589 58.272 143.037 57.968 145.533 58.032V56.832C145.533 54.048 145.149 52 144.381 50.688C143.613 49.376 142.333 48.72 140.541 48.72C139.325 48.72 138.333 49.008 137.565 49.584C136.829 50.16 136.461 51.104 136.461 52.416C136.461 53.152 136.605 53.84 136.893 54.48C137.181 55.12 137.661 55.6 138.333 55.92C138.013 56.272 137.581 56.544 137.037 56.736C136.525 56.896 135.981 56.976 135.405 56.976C134.125 56.976 133.085 56.56 132.285 55.728C131.517 54.864 131.133 53.824 131.133 52.608C131.133 50.72 131.997 49.28 133.725 48.288C135.453 47.264 137.837 46.752 140.877 46.752C144.333 46.752 146.861 47.584 148.461 49.248C150.093 50.88 150.909 53.504 150.909 57.12V65.952C150.909 67.648 151.453 68.496 152.541 68.496C152.797 68.496 153.053 68.432 153.309 68.304C153.597 68.176 153.821 67.984 153.981 67.728ZM138.573 69.024C139.629 69.024 140.701 68.608 141.789 67.776C142.909 66.912 143.837 65.776 144.573 64.368C145.309 62.96 145.677 61.456 145.677 59.856C144.557 59.792 143.421 59.856 142.269 60.048C141.117 60.208 140.125 60.48 139.293 60.864C138.173 61.344 137.293 62 136.653 62.832C136.045 63.632 135.741 64.576 135.741 65.664C135.741 66.624 135.965 67.424 136.413 68.064C136.893 68.704 137.613 69.024 138.573 69.024ZM165.626 72.624C162.618 72.624 160.346 72.112 158.81 71.088C157.274 70.064 156.506 68.688 156.506 66.96C156.506 66.096 156.746 65.36 157.226 64.752C157.738 64.144 158.522 63.84 159.578 63.84C159.77 63.84 160.09 63.872 160.538 63.936C160.442 64.32 160.394 64.672 160.394 64.992C160.394 65.376 160.442 65.792 160.538 66.24C160.698 67.52 161.258 68.56 162.218 69.36C163.21 70.16 164.554 70.56 166.25 70.56C167.754 70.56 168.97 70.288 169.898 69.744C170.826 69.168 171.29 68.336 171.29 67.248C171.29 66.512 171.066 65.872 170.618 65.328C170.202 64.752 169.674 64.272 169.034 63.888C168.394 63.504 167.482 63.024 166.298 62.448C166.042 62.352 165.658 62.176 165.146 61.92C163.418 61.12 162.042 60.416 161.018 59.808C160.026 59.168 159.162 58.32 158.426 57.264C157.722 56.208 157.37 54.912 157.37 53.376C157.37 51.136 158.234 49.472 159.962 48.384C161.69 47.264 163.882 46.704 166.538 46.704C169.194 46.704 171.29 47.12 172.826 47.952C174.362 48.752 175.13 49.92 175.13 51.456C175.13 52.16 174.922 52.768 174.506 53.28C174.122 53.76 173.498 54.016 172.634 54.048C172.474 54.08 172.266 54.096 172.01 54.096C171.85 54.096 171.546 54.064 171.098 54C171.13 53.808 171.146 53.52 171.146 53.136C171.146 52.432 171.05 51.904 170.858 51.552C170.666 50.656 170.17 49.968 169.37 49.488C168.602 48.976 167.594 48.72 166.346 48.72C165.162 48.72 164.154 48.96 163.322 49.44C162.522 49.92 162.122 50.656 162.122 51.648C162.122 52.544 162.378 53.312 162.89 53.952C163.434 54.592 164.09 55.136 164.858 55.584C165.626 56.032 166.714 56.592 168.122 57.264C170.074 58.192 171.53 58.944 172.49 59.52C173.45 60.064 174.314 60.816 175.082 61.776C175.85 62.736 176.234 63.904 176.234 65.28C176.234 67.328 175.37 69.072 173.642 70.512C171.946 71.92 169.274 72.624 165.626 72.624Z" fill="#A6EAFF"/>
</svg>
