<svg width="30" height="21" viewBox="0 0 30 21" fill="none" xmlns="http://www.w3.org/2000/svg">
<path d="M29.7732 9.62483C29.7732 4.32316 23.1852 0 15.0576 0C6.93008 0 0.342529 4.32316 0.342529 9.62483C0.342529 9.76191 0.342529 10.1404 0.342529 10.189C0.342529 15.8143 6.1013 20.37 15.0571 20.37C24.0688 20.37 29.7748 15.8154 29.7748 10.1895L29.7732 9.62483Z" fill="#2D3277"/>
<path d="M29.2102 9.62009C29.2102 14.6191 22.8752 18.6713 15.0598 18.6713C7.24432 18.6713 0.910889 14.6191 0.910889 9.62009C0.910889 4.62104 7.2459 0.568336 15.0598 0.568336C22.8736 0.568336 29.2102 4.62104 29.2102 9.62009Z" fill="#F7D032"/>
<path d="M10.3617 6.76417C10.3548 6.77893 10.2135 6.92233 10.3042 7.04201C10.5283 7.32723 11.2179 7.4912 11.9154 7.33461C12.3303 7.2413 12.8644 6.81794 13.3784 6.40882C13.9372 5.96491 14.4919 5.52047 15.0486 5.34332C15.6391 5.15511 16.0166 5.23788 16.2665 5.31222C16.5406 5.39394 16.8633 5.57583 17.3768 5.95964C18.3458 6.68719 22.2388 10.0856 22.9125 10.6735C23.454 10.4283 25.8618 9.39181 29.1337 8.67005C28.849 6.9255 27.7882 5.32962 26.1813 4.02371C23.9332 4.96584 21.1943 5.45773 18.514 4.14813C18.5003 4.14286 17.0499 3.4559 15.6185 3.48964C13.4944 3.5392 12.5717 4.45971 11.5964 5.43348L10.3617 6.76417Z" fill="white"/>
<path d="M22.7528 11.0425C22.7069 11.0019 18.1755 7.03568 17.1485 6.26489C16.5549 5.81887 16.2238 5.70552 15.8769 5.66176C15.6737 5.64493 15.4691 5.66439 15.2727 5.71922C14.7945 5.84892 14.1698 6.26647 13.6162 6.70617C13.0415 7.16379 12.5001 7.59453 11.9982 7.70788C11.3565 7.85181 10.5747 7.68204 10.2156 7.44058C10.0882 7.36265 9.98552 7.25023 9.91935 7.11634C9.78808 6.8095 10.0306 6.56488 10.0712 6.52428L11.3212 5.17145C11.4667 5.02594 11.6133 4.88095 11.7636 4.7386C11.378 4.79607 10.9972 4.88189 10.6242 4.99536C10.1708 5.12242 9.73483 5.24368 9.29408 5.24368C9.10955 5.24368 8.12366 5.08182 7.9365 5.03279C6.80457 4.72279 5.8113 4.42175 4.32824 3.72899C2.54995 5.05177 1.36055 6.7067 1.01733 8.52981C1.27251 8.59782 1.68479 8.72013 1.85719 8.75809C5.88036 9.65435 7.13408 10.5749 7.36131 10.7673C7.49482 10.6165 7.66083 10.4981 7.8468 10.4208C8.03278 10.3435 8.23387 10.3095 8.43491 10.3213C8.63595 10.3331 8.83169 10.3903 9.00737 10.4888C9.18305 10.5872 9.33408 10.7243 9.44908 10.8896C9.72039 10.6701 10.0591 10.551 10.4081 10.5522C10.6039 10.5541 10.798 10.5881 10.9827 10.6529C11.1621 10.7103 11.3271 10.8053 11.4668 10.9314C11.6065 11.0576 11.7178 11.2121 11.7931 11.3847C11.9687 11.3049 12.1596 11.2644 12.3525 11.266C12.5832 11.269 12.8109 11.3192 13.0215 11.4137C13.7638 11.73 13.8787 12.4602 13.8123 13.0095C13.8648 13.0034 13.9176 13.0004 13.9705 13.0006C14.2463 13.0005 14.5174 13.0719 14.7573 13.208C14.9972 13.344 15.1977 13.54 15.3392 13.7768C15.4807 14.0135 15.5583 14.2829 15.5645 14.5587C15.5707 14.8344 15.5052 15.107 15.3744 15.3499C15.6127 15.4838 16.2238 15.7885 16.7589 15.7189C17.187 15.6662 17.3494 15.518 17.4079 15.4363C17.4469 15.3789 17.4896 15.314 17.4506 15.266L16.3171 14.0028C16.3171 14.0028 16.1299 13.8267 16.1916 13.7582C16.2533 13.6897 16.3709 13.7888 16.4526 13.8568C17.0325 14.3392 17.7364 15.0694 17.7364 15.0694C17.748 15.0778 17.7949 15.169 18.0559 15.2159C18.2799 15.2565 18.6769 15.2328 18.9521 15.0051C19.0245 14.9444 19.0905 14.8765 19.1493 14.8026C19.1455 14.8066 19.1413 14.8102 19.1367 14.8132C19.4266 14.4415 19.104 14.0661 19.104 14.0661L17.7791 12.5772C17.7791 12.5772 17.5893 12.4027 17.6541 12.3321C17.7111 12.2709 17.8339 12.3632 17.9177 12.4317C18.3395 12.7828 18.9305 13.3775 19.4994 13.9343C19.6106 14.0155 20.1099 14.3249 20.771 13.8905C21.1728 13.6269 21.2529 13.3037 21.2418 13.0596C21.2139 12.737 20.9619 12.5066 20.9619 12.5066L19.1514 10.6866C19.1514 10.6866 18.96 10.5237 19.0275 10.441C19.0829 10.3719 19.2068 10.4721 19.288 10.5395C19.8679 11.0225 21.4263 12.4539 21.4263 12.4539C21.448 12.4692 21.9873 12.853 22.6548 12.4286C22.8925 12.2767 23.0454 12.0474 23.0586 11.7801C23.0638 11.6424 23.0393 11.5053 22.9869 11.3779C22.9344 11.2506 22.8551 11.136 22.7544 11.042" fill="white"/>
<path d="M13.9716 13.3496C13.6911 13.3464 13.3837 13.5136 13.3442 13.4888C13.321 13.474 13.3611 13.3617 13.3874 13.2964C13.4138 13.231 13.7839 12.1201 12.8824 11.7332C12.1933 11.4374 11.7715 11.7701 11.626 11.9214C11.5891 11.9604 11.5733 11.9572 11.5675 11.9066C11.5532 11.7068 11.462 11.1643 10.8684 10.9835C10.0185 10.723 9.47075 11.3161 9.33314 11.5302C9.30434 11.3105 9.2023 11.107 9.04352 10.9524C8.88475 10.7979 8.6785 10.7015 8.45812 10.6786C8.23775 10.6558 8.01611 10.708 7.82903 10.8267C7.64195 10.9454 7.50037 11.1237 7.42715 11.3328C7.35394 11.5419 7.35337 11.7696 7.42555 11.979C7.49772 12.1885 7.63842 12.3675 7.82491 12.4872C8.01139 12.6068 8.23277 12.66 8.45326 12.6383C8.67375 12.6166 8.88047 12.5211 9.04001 12.3674C9.04528 12.3732 9.04739 12.3822 9.04528 12.4011C9.00363 12.6452 8.92719 13.5326 9.85614 13.8942C10.2284 14.0382 10.5457 13.9311 10.8083 13.7466C10.8863 13.6912 10.899 13.7144 10.8879 13.7883C10.8542 14.0165 10.8969 14.5047 11.5817 14.7831C12.1037 14.994 12.4121 14.7784 12.6135 14.5907C12.702 14.5111 12.7258 14.5237 12.7305 14.6481C12.7416 14.8911 12.8237 15.1256 12.9668 15.3223C13.1099 15.519 13.3076 15.6694 13.5353 15.7548C13.7631 15.8402 14.0109 15.8568 14.2481 15.8026C14.4852 15.7484 14.7012 15.6258 14.8693 15.4499C15.0374 15.2741 15.1501 15.0528 15.1935 14.8134C15.2369 14.5741 15.2091 14.3272 15.1135 14.1035C15.0179 13.8799 14.8587 13.6892 14.6557 13.5552C14.4527 13.4211 14.2148 13.3497 13.9716 13.3496Z" fill="white"/>
<path d="M13.9717 15.7447C13.6746 15.7465 13.3884 15.6327 13.1737 15.4274C12.9589 15.222 12.8324 14.9413 12.8207 14.6444C12.8207 14.5917 12.8139 14.4515 12.6947 14.4515C12.6407 14.4579 12.591 14.484 12.555 14.5248C12.4179 14.6523 12.244 14.781 11.9899 14.781C11.8615 14.7783 11.7349 14.7507 11.6171 14.6998C10.9602 14.4362 10.9518 13.9828 10.9781 13.8035C10.9846 13.7801 10.9858 13.7555 10.9816 13.7315C10.9774 13.7075 10.9679 13.6848 10.9539 13.6649L10.9138 13.6296H10.8727C10.8308 13.6324 10.791 13.6485 10.7588 13.6754C10.5985 13.7989 10.4033 13.8685 10.201 13.8742C10.0944 13.8732 9.98889 13.8523 9.88996 13.8125C9.02532 13.4761 9.09281 12.66 9.13498 12.4143C9.13948 12.3938 9.13843 12.3724 9.13195 12.3524C9.12546 12.3324 9.11377 12.3144 9.09808 12.3004L9.0364 12.2477L8.97946 12.3031C8.83404 12.4439 8.64536 12.5315 8.44395 12.5517C8.24254 12.572 8.0402 12.5236 7.86969 12.4145C7.69917 12.3054 7.57047 12.142 7.50442 11.9507C7.43837 11.7593 7.43884 11.5513 7.50574 11.3602C7.57265 11.1692 7.70208 11.0063 7.87307 10.898C8.04407 10.7897 8.24663 10.7422 8.44794 10.7633C8.64926 10.7845 8.83755 10.8729 8.98234 11.0144C9.12712 11.1559 9.21991 11.3421 9.2457 11.5428L9.27681 11.7832L9.40914 11.5792C9.4239 11.5555 9.78715 11.0067 10.4541 11.0077C10.5864 11.0084 10.7179 11.0288 10.8442 11.0683C11.3756 11.2307 11.4658 11.7137 11.48 11.9119C11.4895 12.0289 11.5728 12.0347 11.5892 12.0347C11.6094 12.0336 11.6292 12.0283 11.6473 12.0193C11.6655 12.0102 11.6816 11.9975 11.6946 11.982C11.7798 11.8933 11.8822 11.8229 11.9955 11.7752C12.1088 11.7274 12.2307 11.7032 12.3536 11.7042C12.5245 11.7072 12.693 11.7453 12.8487 11.8159C13.6922 12.1787 13.3111 13.2531 13.3063 13.2642C13.2336 13.4419 13.2309 13.5199 13.2995 13.5658L13.3321 13.5816H13.3574C13.4136 13.5749 13.4686 13.5605 13.5209 13.5389C13.6649 13.4819 13.8171 13.4485 13.9717 13.4398C14.1251 13.4365 14.2777 13.4639 14.4204 13.5203C14.5631 13.5768 14.6932 13.6612 14.8028 13.7685C14.9125 13.8759 14.9997 14.0041 15.0592 14.1456C15.1187 14.2871 15.1493 14.439 15.1493 14.5925C15.1493 14.746 15.1187 14.8979 15.0592 15.0394C14.9997 15.1809 14.9125 15.3091 14.8028 15.4165C14.6932 15.5239 14.5631 15.6082 14.4204 15.6647C14.2777 15.7212 14.1251 15.7485 13.9717 15.7453M22.9285 10.568C21.5324 9.35015 18.3059 6.54484 17.4323 5.88951C16.9325 5.51414 16.593 5.31538 16.2935 5.22628C16.1126 5.16944 15.9242 5.14029 15.7347 5.13981C15.4929 5.14251 15.2531 5.18234 15.0234 5.25791C14.4588 5.43716 13.8963 5.88424 13.3522 6.31656L13.3242 6.3387C12.8176 6.74202 12.2935 7.15852 11.8971 7.24762C11.724 7.28619 11.5472 7.30582 11.3698 7.30614C10.9259 7.30614 10.5263 7.1775 10.3771 6.98665C10.3523 6.95501 10.3687 6.90387 10.4267 6.82848L10.4335 6.81846L11.6619 5.49516C12.623 4.53404 13.5314 3.62723 15.6224 3.57926H15.7278C17.0295 3.57926 18.3317 4.16288 18.4772 4.23037C19.6977 4.82612 20.9551 5.12663 22.2236 5.12927C23.5417 5.12927 24.9056 4.80292 26.3359 4.1439C26.1777 4.00946 26.0095 3.8803 25.8382 3.75008C24.5808 4.29522 23.3819 4.57042 22.2257 4.56989C21.0448 4.56989 19.8654 4.28573 18.7197 3.72635C18.6596 3.69683 17.2219 3.01988 15.7267 3.01936H15.6092C13.853 3.06101 12.8629 3.68417 12.1976 4.23195C11.5507 4.24777 10.9924 4.40435 10.4952 4.54195C10.0523 4.66585 9.66958 4.77287 9.29526 4.77234C9.14237 4.77234 8.86505 4.75811 8.8408 4.75758C8.41112 4.7444 6.24743 4.21402 4.52713 3.56186C4.35157 3.68681 4.18233 3.81545 4.01784 3.9462C5.81564 4.6843 8.00358 5.25264 8.69371 5.29745C8.88561 5.3101 9.09017 5.33172 9.29473 5.33277C9.7513 5.33277 10.2073 5.20466 10.6481 5.08077C10.9117 5.00748 11.1969 4.9284 11.4995 4.86988C11.4184 4.94843 11.3382 5.02804 11.257 5.10976L10.0096 6.45996C9.91157 6.55855 9.69805 6.82268 9.83882 7.14903C9.91115 7.29911 10.0249 7.42534 10.1667 7.51281C10.4646 7.71368 10.9971 7.84864 11.4916 7.84864C11.6689 7.84994 11.8457 7.83138 12.0188 7.79329C12.5418 7.67624 13.0907 7.23918 13.6711 6.77734C14.1351 6.40829 14.7925 5.94223 15.296 5.80516C15.4438 5.76579 15.5959 5.74489 15.7489 5.74295C15.7878 5.74304 15.8267 5.74515 15.8654 5.74927C16.1991 5.79198 16.5202 5.90744 17.0949 6.33606C18.1192 7.1058 22.6512 11.0705 22.696 11.1095C22.7862 11.1948 22.8571 11.2983 22.904 11.4133C22.951 11.5282 22.9728 11.6518 22.968 11.7759C22.9575 12.0073 22.8289 12.2124 22.6058 12.3558C22.4294 12.4731 22.223 12.5373 22.0111 12.5409C21.8246 12.5409 21.6419 12.4882 21.4839 12.389C21.4671 12.3753 19.9149 10.9513 19.3434 10.4726C19.2528 10.3972 19.1637 10.3292 19.0751 10.3292C19.0523 10.3289 19.0297 10.3337 19.0091 10.3434C18.9884 10.3531 18.9703 10.3673 18.9559 10.3851C18.8658 10.4963 18.9665 10.6487 19.0856 10.7504L20.8993 12.5735C20.8993 12.5762 21.1254 12.7844 21.1497 13.0654C21.1644 13.3675 21.0195 13.6201 20.7189 13.8172C20.5301 13.9496 20.3063 14.023 20.0757 14.0281C19.8917 14.0272 19.7121 13.9722 19.5591 13.87L19.2986 13.6132C18.8241 13.1456 18.3322 12.6642 17.9732 12.3616C17.8852 12.2888 17.7913 12.2214 17.7022 12.2214C17.6809 12.2212 17.6598 12.2254 17.6401 12.2337C17.6205 12.2419 17.6027 12.254 17.5878 12.2693C17.5472 12.3157 17.5182 12.3975 17.6205 12.5329C17.6484 12.5692 17.6791 12.6032 17.7122 12.6347L19.0355 14.122C19.0471 14.1351 19.3086 14.4452 19.0656 14.7546L19.0187 14.8142C18.9804 14.8562 18.9394 14.8957 18.8958 14.9323C18.6697 15.1179 18.3686 15.1374 18.2489 15.1374C18.189 15.1379 18.1292 15.1329 18.0702 15.1226C17.9395 15.0994 17.852 15.0625 17.8092 15.0124L17.7934 14.9961C17.7212 14.9212 17.0553 14.2401 16.5018 13.7788C16.429 13.7181 16.3383 13.6417 16.2439 13.6417C16.2215 13.6415 16.1992 13.6461 16.1787 13.6552C16.1581 13.6643 16.1398 13.6777 16.1248 13.6944C16.0157 13.8141 16.1775 13.9933 16.2492 14.0582L17.3785 15.3035C17.3681 15.3307 17.3535 15.3561 17.3353 15.3789C17.2947 15.4358 17.1576 15.5729 16.7485 15.624C16.6988 15.6302 16.6488 15.6332 16.5988 15.633C16.177 15.633 15.7257 15.4279 15.4916 15.305C15.5984 15.0829 15.6546 14.8398 15.6561 14.5933C15.6561 14.1465 15.4789 13.7179 15.1633 13.4017C14.8477 13.0854 14.4195 12.9072 13.9727 12.9062H13.9121C13.9416 12.4844 13.882 11.6783 13.0575 11.3246C12.836 11.2251 12.5964 11.1723 12.3536 11.1696C12.1772 11.1685 12.0022 11.2003 11.8375 11.2634C11.7528 11.0982 11.6365 10.9512 11.495 10.831C11.3535 10.7108 11.1897 10.6196 11.0129 10.5627C10.819 10.4943 10.6149 10.4587 10.4093 10.4573C10.0715 10.4553 9.7418 10.5605 9.46766 10.7578C9.343 10.6017 9.18678 10.4736 9.00923 10.3819C8.83167 10.2903 8.63677 10.2372 8.43727 10.226C8.23777 10.2149 8.03816 10.246 7.8515 10.3172C7.66484 10.3885 7.49533 10.4984 7.35405 10.6397C7.00293 10.3714 5.60792 9.48564 1.87735 8.6363C1.69704 8.59518 1.28212 8.47814 1.028 8.40169C0.986112 8.604 0.95444 8.80829 0.933105 9.01379C0.933105 9.01379 1.61848 9.17933 1.75661 9.20991C5.56732 10.0561 6.82737 10.9365 7.03983 11.1026C6.94954 11.3196 6.91419 11.5556 6.93691 11.7895C6.95962 12.0235 7.03971 12.2482 7.17008 12.4438C7.30044 12.6394 7.47704 12.7998 7.68424 12.9108C7.89143 13.0218 8.12281 13.08 8.35787 13.0802C8.44629 13.0806 8.53456 13.0727 8.62148 13.0565C8.74063 13.6364 9.1197 14.075 9.6991 14.3007C9.8614 14.3645 10.034 14.3979 10.2084 14.3993C10.3181 14.3993 10.4274 14.3857 10.5337 14.3587C10.6391 14.6307 10.8811 14.9692 11.4199 15.1875C11.5975 15.262 11.7878 15.3014 11.9804 15.3035C12.129 15.3036 12.2764 15.2773 12.4158 15.226C12.5214 15.4845 12.6897 15.7126 12.9055 15.8899C13.1212 16.0671 13.3778 16.1879 13.6519 16.2412C13.926 16.2946 14.209 16.2789 14.4755 16.1955C14.742 16.1121 14.9836 15.9638 15.1784 15.7637C15.45 15.915 16.022 16.1887 16.6019 16.1892C16.674 16.1887 16.746 16.1841 16.8176 16.1755C17.3938 16.1027 17.6611 15.8771 17.785 15.701C17.8073 15.6701 17.827 15.6375 17.844 15.6034C17.9922 15.6488 18.1462 15.6728 18.3011 15.6746C18.6175 15.6746 18.9175 15.5692 19.2222 15.3456C19.5269 15.1221 19.7352 14.8184 19.7657 14.5548C19.7663 14.5508 19.7663 14.5467 19.7657 14.5427C19.8672 14.5637 19.9705 14.5743 20.0742 14.5743C20.4133 14.5705 20.7436 14.4659 21.0231 14.2738C21.6105 13.8895 21.7122 13.3865 21.7027 13.057C21.8055 13.0787 21.9103 13.0896 22.0154 13.0897C22.331 13.0861 22.6389 12.9914 22.9021 12.8171C23.0764 12.7105 23.2231 12.5641 23.3301 12.3901C23.4371 12.216 23.5015 12.0191 23.5179 11.8154C23.5398 11.5315 23.4716 11.2479 23.3229 11.0051C24.3061 10.5833 26.5547 9.76085 29.2018 9.16404C29.1845 8.95945 29.1569 8.75586 29.1191 8.55406C26.9952 9.02355 24.9217 9.69731 22.9274 10.5659" fill="#2D3277"/>
</svg>
