<svg width="236" height="150" viewBox="0 0 236 150" fill="none" xmlns="http://www.w3.org/2000/svg">
<path d="M121.438 81.0938C121.688 79.0938 121.875 77.0625 121.875 75C121.875 72.9375 121.688 70.9063 121.438 68.9063L134.656 58.5625C135.844 57.625 136.188 55.9375 135.406 54.5625L122.906 32.9063C122.125 31.5625 120.5 31 119.094 31.5625L103.531 37.8438C100.313 35.375 96.7813 33.2813 92.9688 31.6875L90.625 15.125C90.3438 13.6563 89.0625 12.5 87.5 12.5H62.5C60.9375 12.5 59.6563 13.6563 59.4063 15.125L57.0625 31.6875C53.25 33.2813 49.7188 35.3438 46.5 37.8438L30.9375 31.5625C29.5313 31.0313 27.9063 31.5625 27.125 32.9063L14.625 54.5625C13.8438 55.9063 14.1875 57.5938 15.375 58.5625L28.5625 68.9063C28.3125 70.9063 28.125 72.9375 28.125 75C28.125 77.0625 28.3125 79.0938 28.5625 81.0938L15.375 91.4375C14.1875 92.375 13.8438 94.0625 14.625 95.4375L27.125 117.094C27.9063 118.438 29.5313 119 30.9375 118.438L46.5 112.156C49.7188 114.625 53.25 116.719 57.0625 118.313L59.4063 134.875C59.6563 136.344 60.9375 137.5 62.5 137.5H87.5C89.0625 137.5 90.3438 136.344 90.5938 134.875L92.9375 118.313C96.75 116.719 100.281 114.656 103.5 112.156L119.063 118.438C120.469 118.969 122.094 118.438 122.875 117.094L135.375 95.4375C136.156 94.0938 135.813 92.4063 134.625 91.4375L121.438 81.0938ZM75 96.875C62.9063 96.875 53.125 87.0938 53.125 75C53.125 62.9063 62.9063 53.125 75 53.125C87.0938 53.125 96.875 62.9063 96.875 75C96.875 87.0938 87.0938 96.875 75 96.875Z" fill="url(#paint0_linear_32_17)"/>
<path d="M216.958 97.0625C217.125 95.7292 217.25 94.375 217.25 93C217.25 91.625 217.125 90.2709 216.958 88.9375L225.771 82.0417C226.563 81.4167 226.792 80.2917 226.271 79.375L217.938 64.9375C217.417 64.0417 216.333 63.6667 215.396 64.0417L205.021 68.2292C202.875 66.5834 200.521 65.1875 197.979 64.125L196.417 53.0834C196.229 52.1042 195.375 51.3334 194.333 51.3334H177.667C176.625 51.3334 175.771 52.1042 175.604 53.0834L174.042 64.125C171.5 65.1875 169.146 66.5625 167 68.2292L156.625 64.0417C155.688 63.6875 154.604 64.0417 154.083 64.9375L145.75 79.375C145.229 80.2709 145.458 81.3959 146.25 82.0417L155.042 88.9375C154.875 90.2709 154.75 91.625 154.75 93C154.75 94.375 154.875 95.7292 155.042 97.0625L146.25 103.958C145.458 104.583 145.229 105.708 145.75 106.625L154.083 121.063C154.604 121.958 155.688 122.333 156.625 121.958L167 117.771C169.146 119.417 171.5 120.813 174.042 121.875L175.604 132.917C175.771 133.896 176.625 134.667 177.667 134.667H194.333C195.375 134.667 196.229 133.896 196.396 132.917L197.958 121.875C200.5 120.813 202.854 119.438 205 117.771L215.375 121.958C216.313 122.313 217.396 121.958 217.917 121.063L226.25 106.625C226.771 105.729 226.542 104.604 225.75 103.958L216.958 97.0625ZM186 107.583C177.938 107.583 171.417 101.063 171.417 93C171.417 84.9375 177.938 78.4167 186 78.4167C194.063 78.4167 200.583 84.9375 200.583 93C200.583 101.063 194.063 107.583 186 107.583Z" fill="url(#paint1_linear_32_17)"/>
<defs>
<linearGradient id="paint0_linear_32_17" x1="75.0156" y1="12.5" x2="75.0156" y2="137.5" gradientUnits="userSpaceOnUse">
<stop stop-color="#FFC947"/>
<stop offset="1" stop-color="#D98C00"/>
</linearGradient>
<linearGradient id="paint1_linear_32_17" x1="186.01" y1="51.3334" x2="186.01" y2="134.667" gradientUnits="userSpaceOnUse">
<stop stop-color="#185ADB"/>
<stop offset="1" stop-color="#2541B2"/>
</linearGradient>
</defs>
</svg>
